<?xml version="1.0" encoding="iso-8859-1"?>
<!-- Generator: Adobe Illustrator 19.0.0, SVG Export Plug-In . SVG Version: 6.00 Build 0)  -->
<svg version="1.1" id="Layer_1" xmlns="http://www.w3.org/2000/svg" xmlns:xlink="http://www.w3.org/1999/xlink" x="0px" y="0px"
	 viewBox="0 0 512 512" style="enable-background:new 0 0 512 512;" xml:space="preserve">
<g>
	<g>
		<path d="M292.571,191.297v-36.794c27.521-13.778,45.011-41.806,45.011-72.92C337.582,36.597,300.985,0,256,0
			s-81.582,36.597-81.582,81.582c0,31.114,17.49,59.142,45.011,72.92v36.794H5.626V512h500.747V191.297H292.571z M191.297,81.582
			c0-35.678,29.025-64.703,64.703-64.703c35.678,0,64.703,29.025,64.703,64.703c0,26.195-15.63,49.639-39.81,59.723
			c-7.951,3.305-16.328,4.98-24.893,4.98c-8.566,0-16.942-1.676-24.893-4.98C206.923,131.216,191.297,107.774,191.297,81.582z
			 M292.571,303.824h92.835c1.525,0,2.813,1.288,2.813,2.813v33.758c0,1.525-1.288,2.813-2.813,2.813h-92.835V303.824z
			 M275.692,160.751v182.458h-39.385V160.751c6.424,1.601,13.01,2.414,19.692,2.414
			C262.681,163.165,269.267,162.352,275.692,160.751z M489.495,495.121H22.505v-61.89h466.989V495.121z M489.495,416.352H22.505
			V208.176h196.923v78.769H132.22c-10.858,0-19.692,8.835-19.692,19.692v33.758c0,10.858,8.835,19.692,19.692,19.692h253.187
			c10.858,0,19.692-8.835,19.692-19.692v-33.758c0-10.858-8.835-19.692-19.692-19.692h-92.835v-78.769h196.923V416.352z
			 M219.429,303.824v39.385H132.22c-1.525,0-2.813-1.288-2.813-2.813v-33.758c0-1.525,1.288-2.813,2.813-2.813H219.429z"/>
	</g>
</g>
<g>
	<g>
		<path d="M256,39.385c-23.268,0-42.198,18.929-42.198,42.198S232.732,123.78,256,123.78v-16.879
			c-13.96,0-25.319-11.357-25.319-25.319c0-13.961,11.359-25.319,25.319-25.319c13.96,0,25.319,11.357,25.319,25.319h16.879
			C298.198,58.314,279.268,39.385,256,39.385z"/>
	</g>
</g>
<g>
	<g>
		<rect x="447.297" y="230.681" width="22.505" height="16.879"/>
	</g>
</g>
<g>
	<g>
		<rect x="42.198" y="230.681" width="22.505" height="16.879"/>
	</g>
</g>
<g>
	<g>
		<rect x="447.297" y="376.967" width="22.505" height="16.879"/>
	</g>
</g>
<g>
	<g>
		<rect x="42.198" y="376.967" width="22.505" height="16.879"/>
	</g>
</g>
<g>
	<g>
		<rect x="120.967" y="455.736" width="270.066" height="16.879"/>
	</g>
</g>
<g>
	<g>
		<rect x="81.582" y="455.736" width="22.505" height="16.879"/>
	</g>
</g>
<g>
	<g>
		<rect x="407.912" y="455.736" width="22.505" height="16.879"/>
	</g>
</g>
<g>
</g>
<g>
</g>
<g>
</g>
<g>
</g>
<g>
</g>
<g>
</g>
<g>
</g>
<g>
</g>
<g>
</g>
<g>
</g>
<g>
</g>
<g>
</g>
<g>
</g>
<g>
</g>
<g>
</g>
</svg>
