<?xml version="1.0" encoding="iso-8859-1"?>
<!-- Generator: Adobe Illustrator 19.0.0, SVG Export Plug-In . SVG Version: 6.00 Build 0)  -->
<svg version="1.1" id="Layer_1" xmlns="http://www.w3.org/2000/svg" xmlns:xlink="http://www.w3.org/1999/xlink" x="0px" y="0px"
	 viewBox="0 0 512 512" style="enable-background:new 0 0 512 512;" xml:space="preserve">
<rect x="14.066" y="424.791" style="fill:#595E62;" width="483.868" height="78.769"/>
<path style="fill:#7E8488;" d="M497.934,199.736v225.055H14.066V199.736h213.802v95.648H132.22c-6.189,0-11.253,5.064-11.253,11.253
	v33.758c0,6.189,5.064,11.253,11.253,11.253h95.648h56.264h101.275c6.189,0,11.253-5.064,11.253-11.253v-33.758
	c0-6.189-5.064-11.253-11.253-11.253H284.132v-95.648H497.934z"/>
<g>
	<path style="fill:#595E62;" d="M396.659,306.637v33.758c0,6.189-5.064,11.253-11.253,11.253H284.132v-56.264h101.275
		C391.596,295.385,396.659,300.448,396.659,306.637z"/>
	<path style="fill:#595E62;" d="M227.868,295.385v56.264H132.22c-6.189,0-11.253-5.064-11.253-11.253v-33.758
		c0-6.189,5.064-11.253,11.253-11.253H227.868z"/>
</g>
<path style="fill:#AFB6BB;" d="M284.132,295.385v56.264h-56.264v-56.264v-95.648v-50.637c8.665,3.601,18.117,5.626,28.132,5.626
	c10.015,0,19.467-2.025,28.132-5.626v50.637V295.385z"/>
<path style="fill:#F25B22;" d="M256,8.44c40.397,0,73.143,32.745,73.143,73.143c0,30.382-18.567,56.489-45.011,67.516
	c-8.665,3.601-18.117,5.626-28.132,5.626c-10.015,0-19.467-2.025-28.132-5.626c-26.444-11.028-45.011-37.134-45.011-67.516
	C182.857,41.185,215.603,8.44,256,8.44z"/>
<path style="fill:#CB4D1E;" d="M227.868,81.582c0-32.54,21.26-60.083,50.637-69.578C271.412,9.711,263.858,8.44,256,8.44
	c-40.397,0-73.143,32.745-73.143,73.143c0,30.382,18.567,56.489,45.011,67.516c8.665,3.601,18.117,5.626,28.132,5.626
	c7.894,0,15.421-1.299,22.505-3.595c-1.903-0.617-3.792-1.269-5.626-2.031C246.435,138.071,227.868,111.965,227.868,81.582z"/>
<rect x="14.066" y="424.791" style="fill:#484D50;" width="241.934" height="78.769"/>
<path style="fill:#6C7275;" d="M256,351.648h-28.132H132.22c-6.189,0-11.253-5.064-11.253-11.253v-33.758
	c0-6.189,5.064-11.253,11.253-11.253h95.648v-95.648H14.066v225.055H256V351.648z"/>
<path style="fill:#FFFFFF;" d="M256,123.78c-23.268,0-42.198-18.929-42.198-42.198S232.732,39.385,256,39.385
	s42.198,18.929,42.198,42.198h-16.879c0-13.961-11.359-25.319-25.319-25.319c-13.96,0-25.319,11.357-25.319,25.319
	S242.04,106.901,256,106.901V123.78z"/>
<path d="M292.571,191.297v-36.794c27.521-13.778,45.011-41.806,45.011-72.92C337.582,36.597,300.985,0,256,0
	s-81.582,36.597-81.582,81.582c0,31.114,17.49,59.142,45.011,72.92v36.794H5.626V512h500.747V191.297H292.571z M219.429,343.209
	H132.22c-1.525,0-2.813-1.288-2.813-2.813v-33.758c0-1.525,1.288-2.813,2.813-2.813h87.209V343.209z M256,163.165
	c6.681,0,13.267-0.812,19.692-2.414v182.458h-39.385V160.751C242.732,162.352,249.318,163.165,256,163.165z M292.571,303.824h92.835
	c1.525,0,2.813,1.288,2.813,2.813v33.758c0,1.525-1.288,2.813-2.813,2.813h-92.835V303.824z M191.297,81.582
	c0-35.678,29.025-64.703,64.703-64.703s64.703,29.025,64.703,64.703c0,26.195-15.63,49.639-39.81,59.723
	c-7.951,3.305-16.328,4.98-24.893,4.98c-8.566,0-16.942-1.676-24.893-4.98C206.923,131.216,191.297,107.774,191.297,81.582z
	 M489.495,495.121H22.505v-61.89h466.989V495.121z M22.505,416.352V208.176h196.923v78.769H132.22
	c-10.858,0-19.692,8.835-19.692,19.692v33.758c0,10.858,8.835,19.692,19.692,19.692h253.187c10.858,0,19.692-8.835,19.692-19.692
	v-33.758c0-10.858-8.835-19.692-19.692-19.692h-92.835v-78.769h196.923v208.176H22.505z"/>
<g>
	<rect x="447.297" y="230.681" style="fill:#FFFFFF;" width="22.505" height="16.879"/>
	<rect x="42.198" y="230.681" style="fill:#FFFFFF;" width="22.505" height="16.879"/>
	<rect x="447.297" y="376.967" style="fill:#FFFFFF;" width="22.505" height="16.879"/>
	<rect x="42.198" y="376.967" style="fill:#FFFFFF;" width="22.505" height="16.879"/>
	<rect x="120.967" y="455.736" style="fill:#FFFFFF;" width="270.066" height="16.879"/>
	<rect x="81.582" y="455.736" style="fill:#FFFFFF;" width="22.505" height="16.879"/>
	<rect x="407.912" y="455.736" style="fill:#FFFFFF;" width="22.505" height="16.879"/>
</g>
<g>
</g>
<g>
</g>
<g>
</g>
<g>
</g>
<g>
</g>
<g>
</g>
<g>
</g>
<g>
</g>
<g>
</g>
<g>
</g>
<g>
</g>
<g>
</g>
<g>
</g>
<g>
</g>
<g>
</g>
</svg>
